G04 EAGLE Gerber RS-274X export*
G75*
%MOMM*%
%FSLAX34Y34*%
%LPD*%
%INOutline*%
%IPPOS*%
%AMOC8*
5,1,8,0,0,1.08239X$1,22.5*%
G01*
%ADD10C,0.000000*%


D10*
X0Y0D02*
X800000Y0D01*
X800000Y300000D01*
X0Y300000D01*
X0Y0D01*
X55800Y168050D02*
X55802Y168191D01*
X55808Y168332D01*
X55818Y168472D01*
X55832Y168612D01*
X55850Y168752D01*
X55871Y168891D01*
X55897Y169030D01*
X55926Y169168D01*
X55960Y169304D01*
X55997Y169440D01*
X56038Y169575D01*
X56083Y169709D01*
X56132Y169841D01*
X56184Y169972D01*
X56240Y170101D01*
X56300Y170228D01*
X56363Y170354D01*
X56429Y170478D01*
X56500Y170601D01*
X56573Y170721D01*
X56650Y170839D01*
X56730Y170955D01*
X56814Y171068D01*
X56900Y171179D01*
X56990Y171288D01*
X57083Y171394D01*
X57178Y171497D01*
X57277Y171598D01*
X57378Y171696D01*
X57482Y171791D01*
X57589Y171883D01*
X57698Y171972D01*
X57810Y172057D01*
X57924Y172140D01*
X58040Y172220D01*
X58159Y172296D01*
X58280Y172368D01*
X58402Y172438D01*
X58527Y172503D01*
X58653Y172566D01*
X58781Y172624D01*
X58911Y172679D01*
X59042Y172731D01*
X59175Y172778D01*
X59309Y172822D01*
X59444Y172863D01*
X59580Y172899D01*
X59717Y172931D01*
X59855Y172960D01*
X59993Y172985D01*
X60133Y173005D01*
X60273Y173022D01*
X60413Y173035D01*
X60554Y173044D01*
X60694Y173049D01*
X60835Y173050D01*
X60976Y173047D01*
X61117Y173040D01*
X61257Y173029D01*
X61397Y173014D01*
X61537Y172995D01*
X61676Y172973D01*
X61814Y172946D01*
X61952Y172916D01*
X62088Y172881D01*
X62224Y172843D01*
X62358Y172801D01*
X62492Y172755D01*
X62624Y172706D01*
X62754Y172652D01*
X62883Y172595D01*
X63010Y172535D01*
X63136Y172471D01*
X63259Y172403D01*
X63381Y172332D01*
X63501Y172258D01*
X63618Y172180D01*
X63733Y172099D01*
X63846Y172015D01*
X63957Y171928D01*
X64065Y171837D01*
X64170Y171744D01*
X64273Y171647D01*
X64373Y171548D01*
X64470Y171446D01*
X64564Y171341D01*
X64655Y171234D01*
X64743Y171124D01*
X64828Y171012D01*
X64910Y170897D01*
X64989Y170780D01*
X65064Y170661D01*
X65136Y170540D01*
X65204Y170417D01*
X65269Y170292D01*
X65331Y170165D01*
X65388Y170036D01*
X65443Y169906D01*
X65493Y169775D01*
X65540Y169642D01*
X65583Y169508D01*
X65622Y169372D01*
X65657Y169236D01*
X65689Y169099D01*
X65716Y168961D01*
X65740Y168822D01*
X65760Y168682D01*
X65776Y168542D01*
X65788Y168402D01*
X65796Y168261D01*
X65800Y168120D01*
X65800Y167980D01*
X65796Y167839D01*
X65788Y167698D01*
X65776Y167558D01*
X65760Y167418D01*
X65740Y167278D01*
X65716Y167139D01*
X65689Y167001D01*
X65657Y166864D01*
X65622Y166728D01*
X65583Y166592D01*
X65540Y166458D01*
X65493Y166325D01*
X65443Y166194D01*
X65388Y166064D01*
X65331Y165935D01*
X65269Y165808D01*
X65204Y165683D01*
X65136Y165560D01*
X65064Y165439D01*
X64989Y165320D01*
X64910Y165203D01*
X64828Y165088D01*
X64743Y164976D01*
X64655Y164866D01*
X64564Y164759D01*
X64470Y164654D01*
X64373Y164552D01*
X64273Y164453D01*
X64170Y164356D01*
X64065Y164263D01*
X63957Y164172D01*
X63846Y164085D01*
X63733Y164001D01*
X63618Y163920D01*
X63501Y163842D01*
X63381Y163768D01*
X63259Y163697D01*
X63136Y163629D01*
X63010Y163565D01*
X62883Y163505D01*
X62754Y163448D01*
X62624Y163394D01*
X62492Y163345D01*
X62358Y163299D01*
X62224Y163257D01*
X62088Y163219D01*
X61952Y163184D01*
X61814Y163154D01*
X61676Y163127D01*
X61537Y163105D01*
X61397Y163086D01*
X61257Y163071D01*
X61117Y163060D01*
X60976Y163053D01*
X60835Y163050D01*
X60694Y163051D01*
X60554Y163056D01*
X60413Y163065D01*
X60273Y163078D01*
X60133Y163095D01*
X59993Y163115D01*
X59855Y163140D01*
X59717Y163169D01*
X59580Y163201D01*
X59444Y163237D01*
X59309Y163278D01*
X59175Y163322D01*
X59042Y163369D01*
X58911Y163421D01*
X58781Y163476D01*
X58653Y163534D01*
X58527Y163597D01*
X58402Y163662D01*
X58280Y163732D01*
X58159Y163804D01*
X58040Y163880D01*
X57924Y163960D01*
X57810Y164043D01*
X57698Y164128D01*
X57589Y164217D01*
X57482Y164309D01*
X57378Y164404D01*
X57277Y164502D01*
X57178Y164603D01*
X57083Y164706D01*
X56990Y164812D01*
X56900Y164921D01*
X56814Y165032D01*
X56730Y165145D01*
X56650Y165261D01*
X56573Y165379D01*
X56500Y165499D01*
X56429Y165622D01*
X56363Y165746D01*
X56300Y165872D01*
X56240Y165999D01*
X56184Y166128D01*
X56132Y166259D01*
X56083Y166391D01*
X56038Y166525D01*
X55997Y166660D01*
X55960Y166796D01*
X55926Y166932D01*
X55897Y167070D01*
X55871Y167209D01*
X55850Y167348D01*
X55832Y167488D01*
X55818Y167628D01*
X55808Y167768D01*
X55802Y167909D01*
X55800Y168050D01*
X55800Y124050D02*
X55802Y124191D01*
X55808Y124332D01*
X55818Y124472D01*
X55832Y124612D01*
X55850Y124752D01*
X55871Y124891D01*
X55897Y125030D01*
X55926Y125168D01*
X55960Y125304D01*
X55997Y125440D01*
X56038Y125575D01*
X56083Y125709D01*
X56132Y125841D01*
X56184Y125972D01*
X56240Y126101D01*
X56300Y126228D01*
X56363Y126354D01*
X56429Y126478D01*
X56500Y126601D01*
X56573Y126721D01*
X56650Y126839D01*
X56730Y126955D01*
X56814Y127068D01*
X56900Y127179D01*
X56990Y127288D01*
X57083Y127394D01*
X57178Y127497D01*
X57277Y127598D01*
X57378Y127696D01*
X57482Y127791D01*
X57589Y127883D01*
X57698Y127972D01*
X57810Y128057D01*
X57924Y128140D01*
X58040Y128220D01*
X58159Y128296D01*
X58280Y128368D01*
X58402Y128438D01*
X58527Y128503D01*
X58653Y128566D01*
X58781Y128624D01*
X58911Y128679D01*
X59042Y128731D01*
X59175Y128778D01*
X59309Y128822D01*
X59444Y128863D01*
X59580Y128899D01*
X59717Y128931D01*
X59855Y128960D01*
X59993Y128985D01*
X60133Y129005D01*
X60273Y129022D01*
X60413Y129035D01*
X60554Y129044D01*
X60694Y129049D01*
X60835Y129050D01*
X60976Y129047D01*
X61117Y129040D01*
X61257Y129029D01*
X61397Y129014D01*
X61537Y128995D01*
X61676Y128973D01*
X61814Y128946D01*
X61952Y128916D01*
X62088Y128881D01*
X62224Y128843D01*
X62358Y128801D01*
X62492Y128755D01*
X62624Y128706D01*
X62754Y128652D01*
X62883Y128595D01*
X63010Y128535D01*
X63136Y128471D01*
X63259Y128403D01*
X63381Y128332D01*
X63501Y128258D01*
X63618Y128180D01*
X63733Y128099D01*
X63846Y128015D01*
X63957Y127928D01*
X64065Y127837D01*
X64170Y127744D01*
X64273Y127647D01*
X64373Y127548D01*
X64470Y127446D01*
X64564Y127341D01*
X64655Y127234D01*
X64743Y127124D01*
X64828Y127012D01*
X64910Y126897D01*
X64989Y126780D01*
X65064Y126661D01*
X65136Y126540D01*
X65204Y126417D01*
X65269Y126292D01*
X65331Y126165D01*
X65388Y126036D01*
X65443Y125906D01*
X65493Y125775D01*
X65540Y125642D01*
X65583Y125508D01*
X65622Y125372D01*
X65657Y125236D01*
X65689Y125099D01*
X65716Y124961D01*
X65740Y124822D01*
X65760Y124682D01*
X65776Y124542D01*
X65788Y124402D01*
X65796Y124261D01*
X65800Y124120D01*
X65800Y123980D01*
X65796Y123839D01*
X65788Y123698D01*
X65776Y123558D01*
X65760Y123418D01*
X65740Y123278D01*
X65716Y123139D01*
X65689Y123001D01*
X65657Y122864D01*
X65622Y122728D01*
X65583Y122592D01*
X65540Y122458D01*
X65493Y122325D01*
X65443Y122194D01*
X65388Y122064D01*
X65331Y121935D01*
X65269Y121808D01*
X65204Y121683D01*
X65136Y121560D01*
X65064Y121439D01*
X64989Y121320D01*
X64910Y121203D01*
X64828Y121088D01*
X64743Y120976D01*
X64655Y120866D01*
X64564Y120759D01*
X64470Y120654D01*
X64373Y120552D01*
X64273Y120453D01*
X64170Y120356D01*
X64065Y120263D01*
X63957Y120172D01*
X63846Y120085D01*
X63733Y120001D01*
X63618Y119920D01*
X63501Y119842D01*
X63381Y119768D01*
X63259Y119697D01*
X63136Y119629D01*
X63010Y119565D01*
X62883Y119505D01*
X62754Y119448D01*
X62624Y119394D01*
X62492Y119345D01*
X62358Y119299D01*
X62224Y119257D01*
X62088Y119219D01*
X61952Y119184D01*
X61814Y119154D01*
X61676Y119127D01*
X61537Y119105D01*
X61397Y119086D01*
X61257Y119071D01*
X61117Y119060D01*
X60976Y119053D01*
X60835Y119050D01*
X60694Y119051D01*
X60554Y119056D01*
X60413Y119065D01*
X60273Y119078D01*
X60133Y119095D01*
X59993Y119115D01*
X59855Y119140D01*
X59717Y119169D01*
X59580Y119201D01*
X59444Y119237D01*
X59309Y119278D01*
X59175Y119322D01*
X59042Y119369D01*
X58911Y119421D01*
X58781Y119476D01*
X58653Y119534D01*
X58527Y119597D01*
X58402Y119662D01*
X58280Y119732D01*
X58159Y119804D01*
X58040Y119880D01*
X57924Y119960D01*
X57810Y120043D01*
X57698Y120128D01*
X57589Y120217D01*
X57482Y120309D01*
X57378Y120404D01*
X57277Y120502D01*
X57178Y120603D01*
X57083Y120706D01*
X56990Y120812D01*
X56900Y120921D01*
X56814Y121032D01*
X56730Y121145D01*
X56650Y121261D01*
X56573Y121379D01*
X56500Y121499D01*
X56429Y121622D01*
X56363Y121746D01*
X56300Y121872D01*
X56240Y121999D01*
X56184Y122128D01*
X56132Y122259D01*
X56083Y122391D01*
X56038Y122525D01*
X55997Y122660D01*
X55960Y122796D01*
X55926Y122932D01*
X55897Y123070D01*
X55871Y123209D01*
X55850Y123348D01*
X55832Y123488D01*
X55818Y123628D01*
X55808Y123768D01*
X55802Y123909D01*
X55800Y124050D01*
M02*
