M48
;GenerationSoftware,Autodesk,EAGLE,9.5.0*%
;CreationDate,2019-10-08T13:16:42Z*%
FMAT,2
ICI,OFF
METRIC,TZ,000.000
T5C0.300
T4C0.350
T3C1.000
T2C3.000
%
G90
M71
T2
X75883Y4128
X75883Y25717
X4128Y25717
X4128Y4128
T3
X62230Y2540
X52070Y7620
X62230Y5080
X62230Y7620
X52070Y2540
X52070Y5080
X41910Y2540
X41910Y5080
X41910Y7620
X31750Y2540
X31750Y5080
X31750Y7620
X21590Y2540
X21590Y5080
X21590Y7620
X6080Y12405
X6080Y16805
X25400Y5080
X15240Y10160
X15240Y2540
X15240Y5080
X15240Y7620
X55880Y2540
X55880Y5080
X55880Y7620
X45720Y2540
X45720Y7620
X35560Y2540
X45720Y5080
X35560Y5080
X35560Y7620
X25400Y2540
X25400Y7620
T4
X10478Y19050
T5
X22225Y13970
X57150Y14287
X55880Y14287
X64452Y10478
X63182Y10478
X50482Y20638
X52387Y18733
X67628Y15557
X67628Y16828
X57467Y20955
X58737Y22225
X53657Y26035
X51435Y15557
X28257Y9525
X58102Y16828
X23495Y20955
X54927Y14605
X56197Y12382
X47307Y22542
X46672Y21907
X17145Y6350
X27622Y12065
X39688Y12065
X59372Y7302
X49212Y7302
X39053Y7302
X28892Y7302
X15557Y23812
X58102Y18098
X44450Y20638
X67310Y27305
X50165Y14287
X46990Y15875
X53975Y20638
X53975Y18733
X12065Y18098
X18733Y16192
X23495Y21907
X31750Y19685
X57785Y14922
X39688Y20003
X57785Y11112
X30480Y9525
X28257Y10478
X30480Y10478
X20955Y14605
X33338Y13970
X39688Y14287
X41910Y14605
X27622Y19050
X24765Y20003
X41910Y16192
X39688Y16192
X19685Y13970
X39688Y17145
X41910Y17145
X36830Y20003
X22542Y21907
X44767Y24130
X62865Y22542
X48260Y24447
X56832Y21590
X67310Y22542
X46037Y17780
X53022Y20638
M30